<svg xmlns="http://www.w3.org/2000/svg" width="700" height="180" viewBox="0 0 700 180">
  <rect width="700" height="180" fill="#000"/>
  
  <!-- HERALD - stencil line-art, slanted, parallel thin strokes -->
  <g transform="translate(50,20) skewX(-10)" fill="none" stroke="#fff" stroke-width="1.2" stroke-linecap="square">
    
    <!-- H -->
    <g>
      <!-- left vertical (double line) -->
      <line x1="0" y1="0" x2="0" y2="110"/>
      <line x1="4" y1="0" x2="4" y2="110"/>
      <!-- right vertical (double line) -->
      <line x1="46" y1="0" x2="46" y2="110"/>
      <line x1="50" y1="0" x2="50" y2="110"/>
      <!-- crossbar (double line) -->
      <line x1="4" y1="52" x2="46" y2="52"/>
      <line x1="4" y1="56" x2="46" y2="56"/>
    </g>
    
    <!-- E -->
    <g transform="translate(62,0)">
      <!-- vertical (double line) -->
      <line x1="0" y1="0" x2="0" y2="110"/>
      <line x1="4" y1="0" x2="4" y2="110"/>
      <!-- top bar -->
      <line x1="4" y1="0" x2="38" y2="0"/>
      <line x1="4" y1="4" x2="38" y2="4"/>
      <!-- middle bar -->
      <line x1="4" y1="52" x2="32" y2="52"/>
      <line x1="4" y1="56" x2="32" y2="56"/>
      <!-- bottom bar -->
      <line x1="4" y1="106" x2="38" y2="106"/>
      <line x1="4" y1="110" x2="38" y2="110"/>
    </g>
    
    <!-- R -->
    <g transform="translate(112,0)">
      <!-- vertical (double line) -->
      <line x1="0" y1="0" x2="0" y2="110"/>
      <line x1="4" y1="0" x2="4" y2="110"/>
      <!-- top horizontal -->
      <line x1="4" y1="0" x2="30" y2="0"/>
      <line x1="4" y1="4" x2="28" y2="4"/>
      <!-- curve top right (outer) -->
      <line x1="30" y1="0" x2="42" y2="14"/>
      <line x1="42" y1="14" x2="42" y2="30"/>
      <line x1="42" y1="30" x2="30" y2="44"/>
      <!-- curve top right (inner) -->
      <line x1="28" y1="4" x2="38" y2="16"/>
      <line x1="38" y1="16" x2="38" y2="28"/>
      <line x1="38" y1="28" x2="26" y2="44"/>
      <!-- middle horizontal -->
      <line x1="4" y1="44" x2="30" y2="44"/>
      <line x1="4" y1="48" x2="26" y2="48"/>
      <!-- diagonal leg (double line) -->
      <line x1="22" y1="48" x2="46" y2="110"/>
      <line x1="26" y1="48" x2="50" y2="110"/>
    </g>
    
    <!-- A -->
    <g transform="translate(175,0)">
      <!-- left diagonal (double line) -->
      <line x1="24" y1="0" x2="0" y2="110"/>
      <line x1="28" y1="0" x2="4" y2="110"/>
      <!-- right diagonal (double line) -->
      <line x1="24" y1="0" x2="48" y2="110"/>
      <line x1="28" y1="0" x2="52" y2="110"/>
      <!-- crossbar (double line) -->
      <line x1="10" y1="64" x2="40" y2="64"/>
      <line x1="10" y1="68" x2="40" y2="68"/>
    </g>
    
    <!-- L -->
    <g transform="translate(240,0)">
      <!-- vertical (double line) -->
      <line x1="0" y1="0" x2="0" y2="110"/>
      <line x1="4" y1="0" x2="4" y2="110"/>
      <!-- bottom horizontal (double line) -->
      <line x1="0" y1="106" x2="38" y2="106"/>
      <line x1="0" y1="110" x2="38" y2="110"/>
    </g>
    
    <!-- D -->
    <g transform="translate(290,0)">
      <!-- vertical (double line) -->
      <line x1="0" y1="0" x2="0" y2="110"/>
      <line x1="4" y1="0" x2="4" y2="110"/>
      <!-- top horizontal -->
      <line x1="4" y1="0" x2="22" y2="0"/>
      <line x1="4" y1="4" x2="20" y2="4"/>
      <!-- curve right top (outer) -->
      <line x1="22" y1="0" x2="46" y2="22"/>
      <!-- curve right (outer) -->
      <line x1="46" y1="22" x2="46" y2="88"/>
      <!-- curve right bottom (outer) -->
      <line x1="46" y1="88" x2="22" y2="110"/>
      <!-- curve right top (inner) -->
      <line x1="20" y1="4" x2="42" y2="24"/>
      <!-- curve right (inner) -->
      <line x1="42" y1="24" x2="42" y2="86"/>
      <!-- curve right bottom (inner) -->
      <line x1="42" y1="86" x2="20" y2="110"/>
      <!-- bottom horizontal -->
      <line x1="4" y1="106" x2="22" y2="106"/>
      <line x1="4" y1="110" x2="22" y2="110"/>
    </g>
  </g>
  
  <!-- Subtitle -->
  <text x="210" y="158" font-family="Consolas,'Courier New',monospace" font-size="12" fill="#666" letter-spacing="5" transform="skewX(-10) translate(50,0)">MULTI-AGENT TELEGRAM ORCHESTRATOR</text>
</svg>